<mxfile host="app.diagrams.net" modified="2023-03-31T14:16:30.858Z" agent="Mozilla/5.0 (X11; Ubuntu; Linux x86_64; rv:109.0) Gecko/20100101 Firefox/111.0" etag="G0gePN9AwVKGCkqytUTx" version="21.1.2" type="github">
  <diagram name="Página-1" id="A23rTAfUy7DjOKSSAZAr">
    <mxGraphModel dx="472" dy="728" grid="1" gridSize="10" guides="1" tooltips="1" connect="1" arrows="1" fold="1" page="1" pageScale="1" pageWidth="827" pageHeight="1169" math="0" shadow="0">
      <root>
        <mxCell id="0" />
        <mxCell id="1" parent="0" />
        <mxCell id="1uAAPLkVD9kiY8cLvzAx-41" style="edgeStyle=orthogonalEdgeStyle;rounded=0;orthogonalLoop=1;jettySize=auto;html=1;exitX=0.5;exitY=0;exitDx=0;exitDy=0;entryX=0.55;entryY=1;entryDx=0;entryDy=0;entryPerimeter=0;endArrow=none;endFill=0;" edge="1" parent="1" source="1uAAPLkVD9kiY8cLvzAx-5" target="1uAAPLkVD9kiY8cLvzAx-24">
          <mxGeometry relative="1" as="geometry" />
        </mxCell>
        <mxCell id="1uAAPLkVD9kiY8cLvzAx-43" style="edgeStyle=orthogonalEdgeStyle;rounded=0;orthogonalLoop=1;jettySize=auto;html=1;exitX=0.25;exitY=0;exitDx=0;exitDy=0;endArrow=none;endFill=0;" edge="1" parent="1" source="1uAAPLkVD9kiY8cLvzAx-5">
          <mxGeometry relative="1" as="geometry">
            <mxPoint x="290" y="180" as="targetPoint" />
          </mxGeometry>
        </mxCell>
        <mxCell id="1uAAPLkVD9kiY8cLvzAx-45" style="edgeStyle=orthogonalEdgeStyle;rounded=0;orthogonalLoop=1;jettySize=auto;html=1;exitX=0.5;exitY=1;exitDx=0;exitDy=0;entryX=0.5;entryY=0;entryDx=0;entryDy=0;endArrow=none;endFill=0;" edge="1" parent="1" source="1uAAPLkVD9kiY8cLvzAx-5" target="1uAAPLkVD9kiY8cLvzAx-17">
          <mxGeometry relative="1" as="geometry" />
        </mxCell>
        <mxCell id="1uAAPLkVD9kiY8cLvzAx-5" value="Producto" style="swimlane;fontStyle=0;childLayout=stackLayout;horizontal=1;startSize=26;horizontalStack=0;resizeParent=1;resizeParentMax=0;resizeLast=0;collapsible=1;marginBottom=0;align=center;fontSize=14;fillColor=#dae8fc;strokeColor=#6c8ebf;" vertex="1" parent="1">
          <mxGeometry x="460" y="290" width="160" height="86" as="geometry" />
        </mxCell>
        <mxCell id="1uAAPLkVD9kiY8cLvzAx-7" value="Calidad" style="text;spacingLeft=4;spacingRight=4;overflow=hidden;rotatable=0;points=[[0,0.5],[1,0.5]];portConstraint=eastwest;fontSize=12;whiteSpace=wrap;html=1;" vertex="1" parent="1uAAPLkVD9kiY8cLvzAx-5">
          <mxGeometry y="26" width="160" height="30" as="geometry" />
        </mxCell>
        <mxCell id="1uAAPLkVD9kiY8cLvzAx-47" value="Item 2" style="text;strokeColor=none;fillColor=none;spacingLeft=4;spacingRight=4;overflow=hidden;rotatable=0;points=[[0,0.5],[1,0.5]];portConstraint=eastwest;fontSize=12;whiteSpace=wrap;html=1;" vertex="1" parent="1uAAPLkVD9kiY8cLvzAx-5">
          <mxGeometry y="56" width="160" height="30" as="geometry" />
        </mxCell>
        <mxCell id="1uAAPLkVD9kiY8cLvzAx-57" style="edgeStyle=orthogonalEdgeStyle;rounded=0;orthogonalLoop=1;jettySize=auto;html=1;entryX=0.644;entryY=1.033;entryDx=0;entryDy=0;entryPerimeter=0;endArrow=none;endFill=0;" edge="1" parent="1" source="1uAAPLkVD9kiY8cLvzAx-9" target="1uAAPLkVD9kiY8cLvzAx-16">
          <mxGeometry relative="1" as="geometry" />
        </mxCell>
        <mxCell id="1uAAPLkVD9kiY8cLvzAx-9" value="Descuentos" style="swimlane;fontStyle=0;childLayout=stackLayout;horizontal=1;startSize=26;horizontalStack=0;resizeParent=1;resizeParentMax=0;resizeLast=0;collapsible=1;marginBottom=0;align=center;fontSize=14;fillColor=#dae8fc;strokeColor=#6c8ebf;" vertex="1" parent="1">
          <mxGeometry x="740" y="370" width="160" height="116" as="geometry" />
        </mxCell>
        <mxCell id="1uAAPLkVD9kiY8cLvzAx-10" value="Limite Compra" style="text;strokeColor=#6c8ebf;fillColor=#dae8fc;spacingLeft=4;spacingRight=4;overflow=hidden;rotatable=0;points=[[0,0.5],[1,0.5]];portConstraint=eastwest;fontSize=12;whiteSpace=wrap;html=1;" vertex="1" parent="1uAAPLkVD9kiY8cLvzAx-9">
          <mxGeometry y="26" width="160" height="30" as="geometry" />
        </mxCell>
        <mxCell id="1uAAPLkVD9kiY8cLvzAx-11" value="Item 2" style="text;strokeColor=none;fillColor=none;spacingLeft=4;spacingRight=4;overflow=hidden;rotatable=0;points=[[0,0.5],[1,0.5]];portConstraint=eastwest;fontSize=12;whiteSpace=wrap;html=1;" vertex="1" parent="1uAAPLkVD9kiY8cLvzAx-9">
          <mxGeometry y="56" width="160" height="30" as="geometry" />
        </mxCell>
        <mxCell id="1uAAPLkVD9kiY8cLvzAx-12" value="Item 3" style="text;strokeColor=none;fillColor=none;spacingLeft=4;spacingRight=4;overflow=hidden;rotatable=0;points=[[0,0.5],[1,0.5]];portConstraint=eastwest;fontSize=12;whiteSpace=wrap;html=1;" vertex="1" parent="1uAAPLkVD9kiY8cLvzAx-9">
          <mxGeometry y="86" width="160" height="30" as="geometry" />
        </mxCell>
        <mxCell id="1uAAPLkVD9kiY8cLvzAx-13" value="Destinatario" style="swimlane;fontStyle=0;childLayout=stackLayout;horizontal=1;startSize=26;horizontalStack=0;resizeParent=1;resizeParentMax=0;resizeLast=0;collapsible=1;marginBottom=0;align=center;fontSize=14;fillColor=#dae8fc;strokeColor=#6c8ebf;" vertex="1" parent="1">
          <mxGeometry x="710" y="120" width="160" height="116" as="geometry" />
        </mxCell>
        <mxCell id="1uAAPLkVD9kiY8cLvzAx-14" value="Item 1" style="text;strokeColor=none;fillColor=none;spacingLeft=4;spacingRight=4;overflow=hidden;rotatable=0;points=[[0,0.5],[1,0.5]];portConstraint=eastwest;fontSize=12;whiteSpace=wrap;html=1;" vertex="1" parent="1uAAPLkVD9kiY8cLvzAx-13">
          <mxGeometry y="26" width="160" height="30" as="geometry" />
        </mxCell>
        <mxCell id="1uAAPLkVD9kiY8cLvzAx-15" value="Item 2" style="text;strokeColor=none;fillColor=none;spacingLeft=4;spacingRight=4;overflow=hidden;rotatable=0;points=[[0,0.5],[1,0.5]];portConstraint=eastwest;fontSize=12;whiteSpace=wrap;html=1;" vertex="1" parent="1uAAPLkVD9kiY8cLvzAx-13">
          <mxGeometry y="56" width="160" height="30" as="geometry" />
        </mxCell>
        <mxCell id="1uAAPLkVD9kiY8cLvzAx-16" value="Item 3" style="text;strokeColor=none;fillColor=none;spacingLeft=4;spacingRight=4;overflow=hidden;rotatable=0;points=[[0,0.5],[1,0.5]];portConstraint=eastwest;fontSize=12;whiteSpace=wrap;html=1;" vertex="1" parent="1uAAPLkVD9kiY8cLvzAx-13">
          <mxGeometry y="86" width="160" height="30" as="geometry" />
        </mxCell>
        <mxCell id="1uAAPLkVD9kiY8cLvzAx-17" value="Venta" style="swimlane;fontStyle=0;childLayout=stackLayout;horizontal=1;startSize=26;horizontalStack=0;resizeParent=1;resizeParentMax=0;resizeLast=0;collapsible=1;marginBottom=0;align=center;fontSize=14;fillColor=#dae8fc;strokeColor=#6c8ebf;" vertex="1" parent="1">
          <mxGeometry x="510" y="585" width="160" height="116" as="geometry" />
        </mxCell>
        <mxCell id="1uAAPLkVD9kiY8cLvzAx-18" value="Item 1" style="text;strokeColor=none;fillColor=none;spacingLeft=4;spacingRight=4;overflow=hidden;rotatable=0;points=[[0,0.5],[1,0.5]];portConstraint=eastwest;fontSize=12;whiteSpace=wrap;html=1;" vertex="1" parent="1uAAPLkVD9kiY8cLvzAx-17">
          <mxGeometry y="26" width="160" height="30" as="geometry" />
        </mxCell>
        <mxCell id="1uAAPLkVD9kiY8cLvzAx-19" value="Item 2" style="text;strokeColor=none;fillColor=none;spacingLeft=4;spacingRight=4;overflow=hidden;rotatable=0;points=[[0,0.5],[1,0.5]];portConstraint=eastwest;fontSize=12;whiteSpace=wrap;html=1;" vertex="1" parent="1uAAPLkVD9kiY8cLvzAx-17">
          <mxGeometry y="56" width="160" height="30" as="geometry" />
        </mxCell>
        <mxCell id="1uAAPLkVD9kiY8cLvzAx-20" value="Item 3" style="text;strokeColor=none;fillColor=none;spacingLeft=4;spacingRight=4;overflow=hidden;rotatable=0;points=[[0,0.5],[1,0.5]];portConstraint=eastwest;fontSize=12;whiteSpace=wrap;html=1;" vertex="1" parent="1uAAPLkVD9kiY8cLvzAx-17">
          <mxGeometry y="86" width="160" height="30" as="geometry" />
        </mxCell>
        <mxCell id="1uAAPLkVD9kiY8cLvzAx-21" value="Precio" style="swimlane;fontStyle=0;childLayout=stackLayout;horizontal=1;startSize=26;horizontalStack=0;resizeParent=1;resizeParentMax=0;resizeLast=0;collapsible=1;marginBottom=0;align=center;fontSize=14;fillColor=#dae8fc;strokeColor=#6c8ebf;" vertex="1" parent="1">
          <mxGeometry x="470" y="70" width="160" height="116" as="geometry" />
        </mxCell>
        <mxCell id="1uAAPLkVD9kiY8cLvzAx-22" value="Item 1" style="text;spacingLeft=4;spacingRight=4;overflow=hidden;rotatable=0;points=[[0,0.5],[1,0.5]];portConstraint=eastwest;fontSize=12;whiteSpace=wrap;html=1;" vertex="1" parent="1uAAPLkVD9kiY8cLvzAx-21">
          <mxGeometry y="26" width="160" height="30" as="geometry" />
        </mxCell>
        <mxCell id="1uAAPLkVD9kiY8cLvzAx-23" value="Item 2" style="text;strokeColor=none;fillColor=none;spacingLeft=4;spacingRight=4;overflow=hidden;rotatable=0;points=[[0,0.5],[1,0.5]];portConstraint=eastwest;fontSize=12;whiteSpace=wrap;html=1;" vertex="1" parent="1uAAPLkVD9kiY8cLvzAx-21">
          <mxGeometry y="56" width="160" height="30" as="geometry" />
        </mxCell>
        <mxCell id="1uAAPLkVD9kiY8cLvzAx-24" value="Item 3" style="text;strokeColor=none;fillColor=none;spacingLeft=4;spacingRight=4;overflow=hidden;rotatable=0;points=[[0,0.5],[1,0.5]];portConstraint=eastwest;fontSize=12;whiteSpace=wrap;html=1;" vertex="1" parent="1uAAPLkVD9kiY8cLvzAx-21">
          <mxGeometry y="86" width="160" height="30" as="geometry" />
        </mxCell>
        <mxCell id="1uAAPLkVD9kiY8cLvzAx-48" style="edgeStyle=orthogonalEdgeStyle;rounded=0;orthogonalLoop=1;jettySize=auto;html=1;entryX=0.281;entryY=0.967;entryDx=0;entryDy=0;entryPerimeter=0;endArrow=none;endFill=0;" edge="1" parent="1" source="1uAAPLkVD9kiY8cLvzAx-25" target="1uAAPLkVD9kiY8cLvzAx-47">
          <mxGeometry relative="1" as="geometry" />
        </mxCell>
        <mxCell id="1uAAPLkVD9kiY8cLvzAx-25" value="Código" style="swimlane;fontStyle=0;childLayout=stackLayout;horizontal=1;startSize=26;horizontalStack=0;resizeParent=1;resizeParentMax=0;resizeLast=0;collapsible=1;marginBottom=0;align=center;fontSize=14;fillColor=#dae8fc;strokeColor=#6c8ebf;" vertex="1" parent="1">
          <mxGeometry x="150" y="510" width="160" height="116" as="geometry" />
        </mxCell>
        <mxCell id="1uAAPLkVD9kiY8cLvzAx-26" value="Item 1" style="text;strokeColor=none;fillColor=none;spacingLeft=4;spacingRight=4;overflow=hidden;rotatable=0;points=[[0,0.5],[1,0.5]];portConstraint=eastwest;fontSize=12;whiteSpace=wrap;html=1;" vertex="1" parent="1uAAPLkVD9kiY8cLvzAx-25">
          <mxGeometry y="26" width="160" height="30" as="geometry" />
        </mxCell>
        <mxCell id="1uAAPLkVD9kiY8cLvzAx-27" value="Item 2" style="text;strokeColor=none;fillColor=none;spacingLeft=4;spacingRight=4;overflow=hidden;rotatable=0;points=[[0,0.5],[1,0.5]];portConstraint=eastwest;fontSize=12;whiteSpace=wrap;html=1;" vertex="1" parent="1uAAPLkVD9kiY8cLvzAx-25">
          <mxGeometry y="56" width="160" height="30" as="geometry" />
        </mxCell>
        <mxCell id="1uAAPLkVD9kiY8cLvzAx-28" value="Item 3" style="text;strokeColor=none;fillColor=none;spacingLeft=4;spacingRight=4;overflow=hidden;rotatable=0;points=[[0,0.5],[1,0.5]];portConstraint=eastwest;fontSize=12;whiteSpace=wrap;html=1;" vertex="1" parent="1uAAPLkVD9kiY8cLvzAx-25">
          <mxGeometry y="86" width="160" height="30" as="geometry" />
        </mxCell>
        <mxCell id="1uAAPLkVD9kiY8cLvzAx-29" value="Cantidad" style="swimlane;fontStyle=0;childLayout=stackLayout;horizontal=1;startSize=26;horizontalStack=0;resizeParent=1;resizeParentMax=0;resizeLast=0;collapsible=1;marginBottom=0;align=center;fontSize=14;fillColor=#dae8fc;strokeColor=#6c8ebf;" vertex="1" parent="1">
          <mxGeometry x="190" y="260" width="160" height="116" as="geometry" />
        </mxCell>
        <mxCell id="1uAAPLkVD9kiY8cLvzAx-30" value="Item 1" style="text;strokeColor=none;fillColor=none;spacingLeft=4;spacingRight=4;overflow=hidden;rotatable=0;points=[[0,0.5],[1,0.5]];portConstraint=eastwest;fontSize=12;whiteSpace=wrap;html=1;" vertex="1" parent="1uAAPLkVD9kiY8cLvzAx-29">
          <mxGeometry y="26" width="160" height="30" as="geometry" />
        </mxCell>
        <mxCell id="1uAAPLkVD9kiY8cLvzAx-31" value="Item 2" style="text;strokeColor=none;fillColor=none;spacingLeft=4;spacingRight=4;overflow=hidden;rotatable=0;points=[[0,0.5],[1,0.5]];portConstraint=eastwest;fontSize=12;whiteSpace=wrap;html=1;" vertex="1" parent="1uAAPLkVD9kiY8cLvzAx-29">
          <mxGeometry y="56" width="160" height="30" as="geometry" />
        </mxCell>
        <mxCell id="1uAAPLkVD9kiY8cLvzAx-32" value="Item 3" style="text;strokeColor=none;fillColor=none;spacingLeft=4;spacingRight=4;overflow=hidden;rotatable=0;points=[[0,0.5],[1,0.5]];portConstraint=eastwest;fontSize=12;whiteSpace=wrap;html=1;" vertex="1" parent="1uAAPLkVD9kiY8cLvzAx-29">
          <mxGeometry y="86" width="160" height="30" as="geometry" />
        </mxCell>
        <mxCell id="1uAAPLkVD9kiY8cLvzAx-33" value="Origen" style="swimlane;fontStyle=0;childLayout=stackLayout;horizontal=1;startSize=26;horizontalStack=0;resizeParent=1;resizeParentMax=0;resizeLast=0;collapsible=1;marginBottom=0;align=center;fontSize=14;fillColor=#dae8fc;strokeColor=#6c8ebf;" vertex="1" parent="1">
          <mxGeometry x="190" y="60" width="160" height="116" as="geometry" />
        </mxCell>
        <mxCell id="1uAAPLkVD9kiY8cLvzAx-34" value="Item 1" style="text;strokeColor=none;fillColor=none;spacingLeft=4;spacingRight=4;overflow=hidden;rotatable=0;points=[[0,0.5],[1,0.5]];portConstraint=eastwest;fontSize=12;whiteSpace=wrap;html=1;" vertex="1" parent="1uAAPLkVD9kiY8cLvzAx-33">
          <mxGeometry y="26" width="160" height="30" as="geometry" />
        </mxCell>
        <mxCell id="1uAAPLkVD9kiY8cLvzAx-35" value="Item 2" style="text;strokeColor=none;fillColor=none;spacingLeft=4;spacingRight=4;overflow=hidden;rotatable=0;points=[[0,0.5],[1,0.5]];portConstraint=eastwest;fontSize=12;whiteSpace=wrap;html=1;" vertex="1" parent="1uAAPLkVD9kiY8cLvzAx-33">
          <mxGeometry y="56" width="160" height="30" as="geometry" />
        </mxCell>
        <mxCell id="1uAAPLkVD9kiY8cLvzAx-36" value="Item 3" style="text;strokeColor=none;fillColor=none;spacingLeft=4;spacingRight=4;overflow=hidden;rotatable=0;points=[[0,0.5],[1,0.5]];portConstraint=eastwest;fontSize=12;whiteSpace=wrap;html=1;" vertex="1" parent="1uAAPLkVD9kiY8cLvzAx-33">
          <mxGeometry y="86" width="160" height="30" as="geometry" />
        </mxCell>
        <mxCell id="1uAAPLkVD9kiY8cLvzAx-42" style="edgeStyle=orthogonalEdgeStyle;rounded=0;orthogonalLoop=1;jettySize=auto;html=1;endArrow=none;endFill=0;" edge="1" parent="1" source="1uAAPLkVD9kiY8cLvzAx-7" target="1uAAPLkVD9kiY8cLvzAx-31">
          <mxGeometry relative="1" as="geometry" />
        </mxCell>
        <mxCell id="1uAAPLkVD9kiY8cLvzAx-46" style="edgeStyle=orthogonalEdgeStyle;rounded=0;orthogonalLoop=1;jettySize=auto;html=1;entryX=0.75;entryY=0;entryDx=0;entryDy=0;endArrow=none;endFill=0;" edge="1" parent="1" source="1uAAPLkVD9kiY8cLvzAx-16" target="1uAAPLkVD9kiY8cLvzAx-5">
          <mxGeometry relative="1" as="geometry" />
        </mxCell>
        <mxCell id="1uAAPLkVD9kiY8cLvzAx-49" value="1:n" style="text;html=1;align=center;verticalAlign=middle;resizable=0;points=[];autosize=1;strokeColor=none;fillColor=none;" vertex="1" parent="1">
          <mxGeometry x="340" y="205" width="40" height="30" as="geometry" />
        </mxCell>
        <mxCell id="1uAAPLkVD9kiY8cLvzAx-50" value="1:n" style="text;html=1;align=center;verticalAlign=middle;resizable=0;points=[];autosize=1;strokeColor=none;fillColor=none;" vertex="1" parent="1">
          <mxGeometry x="450" y="245" width="40" height="30" as="geometry" />
        </mxCell>
        <mxCell id="1uAAPLkVD9kiY8cLvzAx-51" value="1:n" style="text;html=1;align=center;verticalAlign=middle;resizable=0;points=[];autosize=1;strokeColor=none;fillColor=none;" vertex="1" parent="1">
          <mxGeometry x="350" y="305" width="40" height="30" as="geometry" />
        </mxCell>
        <mxCell id="1uAAPLkVD9kiY8cLvzAx-52" value="1:n" style="text;html=1;align=center;verticalAlign=middle;resizable=0;points=[];autosize=1;strokeColor=none;fillColor=none;" vertex="1" parent="1">
          <mxGeometry x="420" y="305" width="40" height="30" as="geometry" />
        </mxCell>
        <mxCell id="1uAAPLkVD9kiY8cLvzAx-53" value="1:1" style="text;html=1;align=center;verticalAlign=middle;resizable=0;points=[];autosize=1;strokeColor=none;fillColor=none;" vertex="1" parent="1">
          <mxGeometry x="230" y="415" width="40" height="30" as="geometry" />
        </mxCell>
        <mxCell id="1uAAPLkVD9kiY8cLvzAx-54" value="1:1" style="text;html=1;align=center;verticalAlign=middle;resizable=0;points=[];autosize=1;strokeColor=none;fillColor=none;" vertex="1" parent="1">
          <mxGeometry x="460" y="375" width="40" height="30" as="geometry" />
        </mxCell>
        <mxCell id="1uAAPLkVD9kiY8cLvzAx-59" value="1:1" style="text;html=1;align=center;verticalAlign=middle;resizable=0;points=[];autosize=1;strokeColor=none;fillColor=none;" vertex="1" parent="1">
          <mxGeometry x="740" y="235" width="40" height="30" as="geometry" />
        </mxCell>
        <mxCell id="1uAAPLkVD9kiY8cLvzAx-61" value="1:1" style="text;html=1;align=center;verticalAlign=middle;resizable=0;points=[];autosize=1;strokeColor=none;fillColor=none;" vertex="1" parent="1">
          <mxGeometry x="750" y="335" width="40" height="30" as="geometry" />
        </mxCell>
        <mxCell id="1uAAPLkVD9kiY8cLvzAx-62" value="1:n" style="text;html=1;align=center;verticalAlign=middle;resizable=0;points=[];autosize=1;strokeColor=none;fillColor=none;" vertex="1" parent="1">
          <mxGeometry x="540" y="375" width="40" height="30" as="geometry" />
        </mxCell>
        <mxCell id="1uAAPLkVD9kiY8cLvzAx-63" value="1:n" style="text;html=1;align=center;verticalAlign=middle;resizable=0;points=[];autosize=1;strokeColor=none;fillColor=none;" vertex="1" parent="1">
          <mxGeometry x="580" y="555" width="40" height="30" as="geometry" />
        </mxCell>
        <mxCell id="1uAAPLkVD9kiY8cLvzAx-64" value="1:1" style="text;html=1;align=center;verticalAlign=middle;resizable=0;points=[];autosize=1;strokeColor=none;fillColor=none;" vertex="1" parent="1">
          <mxGeometry x="500" y="255" width="40" height="30" as="geometry" />
        </mxCell>
        <mxCell id="1uAAPLkVD9kiY8cLvzAx-65" value="1:1" style="text;html=1;align=center;verticalAlign=middle;resizable=0;points=[];autosize=1;strokeColor=none;fillColor=none;" vertex="1" parent="1">
          <mxGeometry x="510" y="185" width="40" height="30" as="geometry" />
        </mxCell>
      </root>
    </mxGraphModel>
  </diagram>
</mxfile>
